<?xml version="1.0" encoding="utf-8"?><svg version="1.1" id="Layer_1" xmlns="http://www.w3.org/2000/svg" xmlns:xlink="http://www.w3.org/1999/xlink" x="0px" y="0px" viewBox="0 0 160 90" style="enable-background:new 0 0 160 90;" xml:space="preserve"><style type="text/css">.st0{fill:#d8dde0;}</style><path class="st0" d="M97,33.6c-4.5,0.5-5.8,5.2-9.1,9.2c-4.5,5.4-11.2,2.6-11.2,2.6c4.5-0.6,5.8-5.3,9.3-9.3C90.5,30.9,97,33.6,97,33.6 M80.7,41.5c0,0,5.6-4.5,3.2-11.1c-1.8-5-5.3-8.5-3.5-12.6c0,0-5.6,4.5-3.2,11.1C79,33.9,82.6,37.4,80.7,41.5 M80.4,40.6c0,0,0.5-7.2-5.7-10c-4.9-2.1-10-1.9-11.7-6.1c0,0-0.7,7.2,5.9,10C73.8,36.5,78.7,36.4,80.4,40.6 M73,52.7h12.6l2.9-5.9H73V52.7z M75,70.2h1.1l7.2-16.7H75V70.2z"/></svg>