<?xml version="1.0" encoding="UTF-8"?>
<svg id="ukrainian" xmlns="http://www.w3.org/2000/svg">
  <defs>
    <style>
      .cls-1 {
        fill: #1a3948;
      }

      .cls-1, .cls-2 {
        stroke-width: 0px;
      }

      .cls-2 {
        fill: #fa5420;
      }
    </style>
  </defs>
  <g id="ukrainian-2" data-name="ukrainian">
    <path class="cls-1" d="m56.2,53.36h-3.31v-13.43h4.86c1.08,0,2.47.13,3.61,1.12.91.78,1.35,1.86,1.35,3.29,0,1.31-.4,2.39-1.18,3.18-1.07,1.06-2.44,1.2-3.51,1.2h-1.81v4.64Zm0-7.34h1.02c.33,0,1.11,0,1.61-.47.3-.3.48-.75.48-1.24s-.17-.94-.47-1.22c-.44-.41-1.1-.47-1.68-.47h-.96v3.4Zm11.61,7.64c-1.47,0-2.54-.43-3.45-1.38-.89-.93-1.34-2.07-1.34-3.38,0-1.43.52-2.75,1.43-3.64.82-.8,1.95-1.24,3.21-1.24.82,0,1.93.2,2.74,1.11v-.82h3.11v9.05h-3.11v-.87c-.62.77-1.48,1.17-2.58,1.17Zm.57-6.99c-.57,0-1.14.23-1.53.61-.29.29-.64.78-.64,1.54s.32,1.24.58,1.52c.4.42,1.02.66,1.65.66.54,0,1.07-.21,1.45-.59.31-.29.68-.8.68-1.6,0-.61-.23-1.18-.64-1.56-.46-.43-1.11-.59-1.55-.59Zm17.84,9.19h-2.79v-2.5h-5.98v2.5h-2.79v-4.87h.09c.45-.06.84-.23,1.18-.54.7-.63.76-1.55.76-2.61v-3.53h8.2v6.67h1.34v4.88Zm-7.53-4.88h3.08v-4.29h-2.21v1.59c0,.89-.12,1.37-.21,1.66-.08.26-.27.65-.66,1.04Zm11.8,2.38h-3.11v-9.05h3.11v9.05Zm-1.56-10.96c-1.01,0-1.8-.78-1.8-1.76s.79-1.76,1.8-1.76,1.8.78,1.8,1.76-.79,1.76-1.8,1.76Zm8.08,11.25c-1.61,0-3.07-.53-4.02-1.46-.87-.85-1.39-2.11-1.39-3.36s.52-2.51,1.39-3.36c.94-.93,2.41-1.46,4.02-1.46s3.07.53,4.02,1.46c.87.85,1.39,2.11,1.39,3.36s-.52,2.51-1.39,3.36c-.95.93-2.41,1.46-4.02,1.46Zm0-7.03c-.63,0-1.16.2-1.57.61-.43.42-.64.94-.64,1.6s.21,1.18.64,1.6c.41.4.95.61,1.59.61s1.14-.2,1.55-.61c.43-.42.64-.94.64-1.6s-.21-1.18-.64-1.6c-.41-.4-.94-.61-1.57-.61Zm-38.04,28.26c-2.22,0-4.03-.66-5.37-1.95-1.38-1.3-2.14-3.11-2.14-5.09s.78-3.77,2.14-5.05c1.32-1.25,3.13-1.93,5.11-1.93,1.02,0,2.1.24,3.28.74l.06.03v3.84l-.17-.17c-.88-.92-1.92-1.38-3.09-1.38-1.08,0-1.99.34-2.69,1-.79.75-1.25,1.84-1.25,2.99,0,1.53.72,2.44,1.14,2.85.33.33,1.28,1.08,2.85,1.08,1.1,0,2.09-.44,3.03-1.34l.17-.16v3.8l-.05.03c-1.29.64-2.29.72-3.02.72Zm10.09-.3h-5.61v-9.05h4.94c.56,0,1.59,0,2.31.6.51.43.76,1.04.76,1.8,0,.65-.18,1.11-.58,1.5-.14.15-.31.28-.51.38.41.12.8.33,1.08.59.41.4.62.93.62,1.58,0,.71-.24,1.33-.7,1.78-.38.38-1.09.82-2.32.82Zm-2.5-2.1h1.22c.24,0,.57,0,.81-.21.16-.14.25-.37.25-.62,0-.27-.14-.45-.25-.54-.26-.21-.68-.21-.93-.21h-1.1v1.59Zm0-3.41h1.1c.16,0,.46-.02.68-.16.18-.13.26-.31.26-.57,0-.32-.16-.48-.23-.54-.14-.11-.48-.16-.75-.16h-1.06v1.43Zm11.77,5.81c-1.61,0-3.07-.53-4.02-1.46-.87-.85-1.39-2.11-1.39-3.36s.52-2.51,1.39-3.36c.94-.93,2.41-1.46,4.02-1.46s3.07.53,4.02,1.46c.87.85,1.39,2.11,1.39,3.36s-.52,2.51-1.39,3.36c-.95.93-2.41,1.46-4.02,1.46Zm0-7.03c-.63,0-1.16.2-1.57.61-.43.42-.64.94-.64,1.6s.21,1.18.64,1.6c.41.4.95.61,1.59.61s1.14-.2,1.55-.61c.43-.42.64-.94.64-1.6s-.21-1.18-.64-1.6c-.41-.4-.94-.61-1.57-.61Zm11.87,7.03c-1.62,0-2.83-.42-3.79-1.34-1.63-1.58-1.63-3.88-1.63-4.64,0-1.55.23-4.39,1.81-6.04,1.06-1.11,2.4-1.4,3.29-1.6l.72-.16c.8-.17,1.38-.3,1.68-.63.16-.18.2-.37.2-.49v-.1h2.76v.11c-.1.9-.53,1.83-1.11,2.38-.46.45-1.19.81-2.23,1.09l-1.22.33c-.76.21-1.63.44-2.21.95-.46.41-.77,1-.88,1.63.77-.77,1.78-1.15,3.08-1.15,1.44,0,2.71.45,3.57,1.28.87.83,1.37,2.04,1.37,3.33,0,1.42-.53,2.7-1.49,3.62-1.29,1.24-2.77,1.4-3.92,1.4Zm-.02-7.01c-.81,0-1.32.38-1.55.61-.41.41-.66,1-.66,1.6s.23,1.14.64,1.54c.23.23.75.61,1.61.61.55,0,1.04-.19,1.46-.55.46-.41.74-1.04.74-1.67,0-.54-.23-1.07-.64-1.5-.42-.41-.96-.63-1.59-.63Zm11.87,7.01c-1.61,0-3.07-.53-4.02-1.46-.87-.85-1.39-2.11-1.39-3.36s.52-2.51,1.39-3.36c.94-.93,2.41-1.46,4.02-1.46s3.07.53,4.02,1.46c.87.85,1.39,2.11,1.39,3.36s-.52,2.51-1.39,3.36c-.95.93-2.41,1.46-4.02,1.46Zm0-7.03c-.63,0-1.16.2-1.57.61-.43.42-.64.94-.64,1.6s.21,1.18.64,1.6c.41.4.95.61,1.59.61s1.14-.2,1.55-.61c.43-.42.64-.94.64-1.6s-.21-1.18-.64-1.6c-.41-.4-.94-.61-1.57-.61Zm17.19,9.23h-2.79v-2.5h-5.98v2.5h-2.79v-4.87h.09c.45-.06.84-.23,1.18-.54.7-.63.76-1.55.76-2.61v-3.53h8.2v6.67h1.34v4.88Zm-7.53-4.88h3.08v-4.29h-2.21v1.59c0,.89-.12,1.37-.21,1.66-.08.26-.27.65-.66,1.04Zm12.64,2.68c-1.47,0-2.54-.43-3.45-1.38-.89-.93-1.34-2.07-1.34-3.38,0-1.43.52-2.75,1.43-3.64.82-.8,1.95-1.24,3.21-1.24.82,0,1.93.2,2.74,1.11v-.82h3.11v9.05h-3.11v-.87c-.62.77-1.48,1.17-2.58,1.17Zm.57-6.99c-.57,0-1.14.23-1.53.61-.29.29-.64.78-.64,1.54s.32,1.24.58,1.52c.4.42,1.02.66,1.65.66.54,0,1.07-.21,1.45-.59.31-.29.68-.8.68-1.6,0-.61-.23-1.18-.64-1.56-.46-.43-1.11-.59-1.55-.59Z"/>
  </g>
  <g id="New_Symbol" data-name="New Symbol">
    <path class="cls-2" d="m52.19,24.13c-6.89.8-8.83,7.93-14.01,14.09-6.93,8.22-17.21,4-17.21,4,6.93-.86,8.92-8.04,14.23-14.17,7.04-8.13,16.99-3.91,16.99-3.91Zm-24.98,12.06s8.62-6.83,4.9-16.89c-2.8-7.59-8.2-12.97-5.34-19.3,0,0-8.54,6.93-4.98,16.89,2.72,7.62,8.28,12.97,5.42,19.3Zm-.5-1.45s.83-11.07-8.72-15.28C10.54,16.19,2.71,16.49.03,10.08c0,0-1.06,11,9.07,15.26,7.5,3.15,14.93,2.99,17.61,9.4Zm-11.35,18.59h19.37l4.52-9.09H15.36v9.09Zm3.09,26.67h1.63l11.12-25.45h-12.75v25.45Z"/>
  </g>
</svg>